<mxfile host="app.diagrams.net" modified="2023-04-28T03:28:14.652Z" agent="Mozilla/5.0 (Windows NT 10.0; Win64; x64) AppleWebKit/537.36 (KHTML, like Gecko) Chrome/112.0.0.0 Safari/537.36 Edg/112.0.1722.58" etag="wilV8mf23CVcimp1t2EK" version="21.2.3" type="github">
  <diagram name="第 1 页" id="964w8AxHDyfffYtfb5C_">
    <mxGraphModel dx="1377" dy="796" grid="1" gridSize="10" guides="1" tooltips="1" connect="1" arrows="1" fold="1" page="1" pageScale="1" pageWidth="1169" pageHeight="827" math="0" shadow="0">
      <root>
        <mxCell id="0" />
        <mxCell id="1" parent="0" />
        <mxCell id="ZGyO1BCPirpCA5-LD1JW-1" value="&lt;h1&gt;应用使用流水线+docker容器&lt;/h1&gt;" style="text;html=1;strokeColor=none;fillColor=none;spacing=5;spacingTop=-20;whiteSpace=wrap;overflow=hidden;rounded=0;" vertex="1" parent="1">
          <mxGeometry x="30" y="130" width="190" height="110" as="geometry" />
        </mxCell>
        <mxCell id="ZGyO1BCPirpCA5-LD1JW-2" value="Git/SVN" style="rounded=0;whiteSpace=wrap;html=1;" vertex="1" parent="1">
          <mxGeometry x="60" y="280" width="110" height="50" as="geometry" />
        </mxCell>
        <mxCell id="ZGyO1BCPirpCA5-LD1JW-3" value="提交&lt;br&gt;代码" style="text;html=1;align=center;verticalAlign=middle;resizable=0;points=[];autosize=1;strokeColor=none;fillColor=none;" vertex="1" parent="1">
          <mxGeometry x="70" y="379" width="50" height="40" as="geometry" />
        </mxCell>
        <mxCell id="ZGyO1BCPirpCA5-LD1JW-4" style="edgeStyle=orthogonalEdgeStyle;rounded=0;orthogonalLoop=1;jettySize=auto;html=1;entryX=0.5;entryY=1;entryDx=0;entryDy=0;" edge="1" parent="1" source="ZGyO1BCPirpCA5-LD1JW-6" target="ZGyO1BCPirpCA5-LD1JW-2">
          <mxGeometry relative="1" as="geometry" />
        </mxCell>
        <mxCell id="ZGyO1BCPirpCA5-LD1JW-6" value="开发人员" style="shape=umlActor;verticalLabelPosition=bottom;verticalAlign=top;html=1;outlineConnect=0;" vertex="1" parent="1">
          <mxGeometry x="100" y="450" width="30" height="60" as="geometry" />
        </mxCell>
      </root>
    </mxGraphModel>
  </diagram>
</mxfile>
